<?xml version="1.0" encoding="UTF-8" ?>
<!DOCTYPE svg PUBLIC "-//W3C//DTD SVG 1.1//EN" "http://www.w3.org/Graphics/SVG/1.1/DTD/svg11.dtd">
<svg width="782pt" height="347pt" viewBox="0 0 782 347" version="1.1" xmlns="http://www.w3.org/2000/svg">
<g id="#ffffffff">
</g>
<g id="#3e8c99ff">
<path fill="#3e8c99" opacity="1.00" d=" M 178.13 41.16 C 205.78 24.22 238.61 15.98 270.97 17.76 C 301.34 19.20 331.19 29.50 356.01 47.06 C 381.35 64.87 401.50 90.06 413.07 118.82 C 425.43 149.16 428.22 183.28 421.08 215.24 C 410.18 266.16 372.91 310.52 324.59 329.93 C 344.46 317.68 361.99 301.50 375.13 282.15 C 392.66 256.62 402.63 225.95 403.31 194.97 C 404.22 164.22 396.04 133.26 380.05 106.97 C 363.95 80.33 340.07 58.45 312.05 44.87 C 280.64 29.46 244.16 24.85 209.87 31.63 C 198.97 33.66 188.49 37.29 178.13 41.16 Z" />
</g>
<g id="#41619cff">
<path fill="#41619c" opacity="1.00" d=" M 637.57 106.60 C 657.86 98.43 680.39 96.33 701.96 99.54 C 711.34 100.54 720.60 102.45 729.97 103.63 C 730.79 117.38 732.32 131.07 734.00 144.73 C 730.88 145.28 727.77 145.83 724.67 146.39 C 721.71 135.98 717.22 125.38 708.60 118.40 C 698.76 110.32 685.39 108.41 673.04 108.86 C 658.51 109.59 645.17 118.39 637.65 130.67 C 627.16 147.34 625.58 167.93 627.35 187.11 C 628.88 203.34 633.05 220.34 644.32 232.68 C 654.78 244.19 671.40 248.47 686.47 246.25 C 690.78 245.46 695.65 243.96 697.84 239.78 C 700.06 235.21 699.67 229.95 699.78 225.00 C 699.64 217.35 700.13 209.67 699.19 202.05 C 698.79 198.52 697.14 194.80 693.73 193.26 C 688.48 190.69 682.50 190.38 676.80 189.61 C 676.76 186.74 676.75 183.88 676.76 181.01 C 700.15 180.99 723.55 181.00 746.94 181.00 C 746.93 183.92 746.95 186.84 746.99 189.77 C 742.76 190.29 738.05 190.72 734.70 193.65 C 731.23 197.92 732.15 203.84 732.00 208.96 C 732.32 222.41 731.09 235.99 733.28 249.33 C 712.05 253.24 690.65 258.04 668.93 256.87 C 651.20 255.83 633.24 250.81 618.98 239.91 C 604.80 229.37 595.28 213.21 591.92 195.96 C 588.04 176.30 589.98 154.82 600.42 137.40 C 608.80 123.24 622.47 112.79 637.57 106.60 Z" />
<path fill="#41619c" opacity="1.00" d=" M 35.77 101.53 C 59.75 101.53 83.73 101.52 107.72 101.53 C 107.76 104.48 107.78 107.43 107.57 110.37 C 102.76 110.76 97.73 111.01 93.35 113.24 C 89.56 115.24 88.68 119.91 88.37 123.80 C 87.70 137.78 88.11 151.78 88.01 165.77 C 108.85 165.76 129.69 165.79 150.53 165.76 C 150.49 152.56 150.60 139.35 150.47 126.16 C 150.13 121.66 149.75 116.14 145.44 113.56 C 140.98 111.06 135.71 111.02 130.78 110.24 C 130.77 107.34 130.77 104.44 130.77 101.53 C 154.75 101.52 178.73 101.54 202.71 101.52 C 202.73 104.44 202.73 107.36 202.71 110.28 C 197.10 111.24 190.44 110.82 186.11 115.12 C 182.31 120.20 183.57 127.00 183.05 132.93 C 182.95 162.31 182.98 191.70 183.04 221.08 C 183.57 227.26 182.23 234.44 186.47 239.61 C 190.97 243.35 197.23 243.14 202.73 243.87 C 202.72 246.82 202.72 249.77 202.73 252.72 C 178.74 252.73 154.76 252.73 130.77 252.72 C 130.77 249.77 130.77 246.83 130.78 243.89 C 135.07 243.29 139.44 242.92 143.58 241.54 C 146.12 240.75 148.43 238.91 149.26 236.32 C 150.77 231.71 150.53 226.80 150.52 222.03 C 150.51 207.43 150.53 192.83 150.53 178.24 C 129.69 178.23 108.85 178.24 88.01 178.22 C 88.09 194.47 87.76 210.72 88.22 226.96 C 88.46 231.61 88.42 237.39 92.66 240.39 C 97.12 243.20 102.65 243.17 107.72 243.87 C 107.73 246.82 107.73 249.78 107.73 252.73 C 83.74 252.72 59.75 252.73 35.77 252.72 C 35.77 249.77 35.77 246.83 35.78 243.89 C 40.96 243.16 46.60 243.13 51.13 240.19 C 55.09 237.08 55.22 231.57 55.52 226.97 C 55.53 193.63 55.54 160.30 55.51 126.96 C 55.19 122.20 55.09 116.26 50.57 113.39 C 46.12 110.78 40.76 110.88 35.78 110.27 C 35.77 107.36 35.76 104.44 35.77 101.53 Z" />
<path fill="#41619c" opacity="1.00" d=" M 222.28 101.53 C 246.54 101.52 270.79 101.53 295.05 101.53 C 308.52 101.88 323.14 103.10 334.09 111.84 C 347.49 121.96 350.78 141.60 344.59 156.63 C 339.95 167.69 329.37 174.75 318.62 179.09 C 323.22 187.78 328.36 196.17 333.52 204.54 C 341.31 216.77 349.08 229.21 359.32 239.58 C 362.32 242.71 366.28 244.63 370.34 246.00 C 369.82 248.66 369.27 251.32 368.71 253.98 C 357.63 253.93 346.40 253.21 335.71 250.16 C 328.88 248.25 322.53 244.42 318.20 238.74 C 307.76 225.20 300.56 209.58 292.10 194.81 C 290.44 191.92 287.95 189.20 284.56 188.47 C 281.09 187.77 277.52 187.89 274.01 187.68 C 274.02 200.82 273.95 213.95 274.04 227.09 C 274.27 231.70 274.60 237.36 278.80 240.21 C 283.25 242.98 288.69 243.09 293.73 243.89 C 293.73 246.83 293.73 249.78 293.72 252.72 C 269.91 252.73 246.09 252.72 222.27 252.73 C 222.27 249.78 222.27 246.83 222.27 243.88 C 227.59 243.17 233.41 243.07 237.95 239.86 C 241.57 236.70 241.82 231.46 241.99 227.00 C 242.00 193.65 242.02 160.30 241.98 126.95 C 241.83 122.09 241.25 116.14 236.67 113.33 C 232.30 111.00 227.23 110.75 222.39 110.34 C 222.24 107.41 222.23 104.47 222.28 101.53 M 277.60 112.72 C 274.42 114.08 273.91 117.93 273.99 120.97 C 274.01 139.98 273.98 158.99 274.01 178.00 C 282.50 177.90 291.52 178.27 299.28 174.25 C 306.15 170.27 310.92 163.13 312.55 155.41 C 314.34 146.99 314.05 138.05 311.43 129.83 C 308.80 121.40 301.83 114.21 293.10 112.24 C 288.03 111.15 282.54 110.98 277.60 112.72 Z" />
<path fill="#41619c" opacity="1.00" d=" M 436.53 101.53 C 455.68 101.52 474.83 101.53 493.98 101.53 C 506.05 101.62 518.28 100.93 530.17 103.47 C 538.75 105.34 547.31 109.12 553.12 115.92 C 560.21 124.11 562.11 136.26 558.28 146.34 C 553.25 159.04 540.41 166.82 527.59 169.83 C 538.64 172.09 549.94 175.72 558.38 183.53 C 565.13 189.71 568.83 198.91 568.51 208.04 C 568.83 222.11 560.02 235.03 548.46 242.42 C 536.03 249.93 521.37 252.92 506.99 253.46 C 483.43 253.49 459.86 253.46 436.29 253.48 C 436.24 250.52 436.19 247.56 436.45 244.62 C 441.69 244.04 447.39 243.94 451.92 240.90 C 455.88 237.52 455.71 231.78 455.98 227.03 C 456.02 194.66 456.00 162.28 455.99 129.91 C 455.72 124.97 455.88 119.43 452.74 115.29 C 448.73 110.73 442.05 111.02 436.52 110.37 C 436.52 107.43 436.52 104.48 436.53 101.53 M 492.13 113.09 C 489.44 113.69 487.75 116.24 488.03 118.95 C 487.96 134.89 488.01 150.83 488.01 166.77 C 498.03 166.72 509.01 167.51 517.83 161.81 C 525.01 157.19 527.43 148.10 527.30 140.02 C 527.35 131.62 524.63 122.56 517.70 117.31 C 510.53 111.84 500.67 110.84 492.13 113.09 M 488.00 177.00 C 488.00 192.00 488.00 207.00 488.00 222.00 C 488.11 227.64 488.88 233.85 492.82 238.22 C 496.87 242.63 503.29 243.58 508.99 243.26 C 517.44 242.90 525.05 237.33 528.99 230.01 C 533.73 221.24 534.38 210.79 532.83 201.10 C 531.58 193.26 527.14 185.73 520.04 181.90 C 510.28 176.53 498.79 176.91 488.00 177.00 Z" />
</g>
</svg>
