<?xml version="1.0" standalone="no"?>
<!DOCTYPE svg PUBLIC "-//W3C//DTD SVG 20010904//EN"
 "http://www.w3.org/TR/2001/REC-SVG-20010904/DTD/svg10.dtd">
<svg version="1.0" xmlns="http://www.w3.org/2000/svg"
 width="488.000000pt" height="488.000000pt" viewBox="0 0 488.000000 488.000000"
 preserveAspectRatio="xMidYMid meet">
<metadata>
Created by potrace 1.14, written by Peter Selinger 2001-2017
</metadata>
<g transform="translate(0.000000,488.000000) scale(0.100000,-0.100000)"
fill="#000000" stroke="none">
<path d="M2585 4374 c-213 -31 -343 -66 -520 -139 -88 -36 -247 -116 -242
-122 2 -1 59 15 128 38 224 73 381 97 629 97 96 0 198 -3 225 -8 28 -4 84 -13
125 -20 684 -110 1296 -618 1544 -1283 109 -290 146 -568 122 -896 -4 -52 -9
-97 -11 -101 -2 -3 -6 -28 -10 -56 -7 -64 -48 -224 -79 -314 -103 -293 -250
-531 -477 -770 -73 -76 -249 -219 -366 -297 -33 -22 101 38 167 75 596 333
984 926 1046 1602 12 138 7 368 -11 474 -51 289 -135 525 -266 745 -166 276
-428 539 -699 702 -209 125 -517 238 -722 264 -28 4 -60 9 -72 12 -49 12 -425
10 -511 -3z"/>
<path d="M9 3323 c-2 -27 0 -86 4 -89 1 -2 25 -6 52 -9 113 -14 158 -42 177
-109 13 -47 17 -1337 4 -1418 -12 -81 -66 -119 -184 -132 -24 -2 -46 -7 -49
-10 -5 -4 -7 -54 -4 -93 1 -10 98 -13 451 -13 l449 0 0 55 c-1 30 -2 55 -3 55
0 0 -26 3 -56 6 -30 4 -76 15 -102 26 -81 34 -82 38 -86 441 l-4 347 391 0
c365 0 391 -1 392 -17 0 -10 1 -160 1 -333 0 -338 -5 -385 -47 -418 -27 -22
-115 -45 -190 -51 -6 -1 -10 -24 -10 -53 l1 -53 450 -3 450 -2 0 52 -1 53 -80
16 c-101 19 -129 38 -149 97 -14 40 -16 131 -14 746 3 639 5 704 20 732 21 39
65 60 154 75 l70 11 0 52 -1 51 -451 3 -450 2 1 -49 c0 -28 3 -52 6 -55 2 -3
20 -8 39 -11 147 -24 181 -48 196 -142 8 -52 9 -531 1 -540 -4 -3 -181 -7
-393 -7 l-386 -1 4 285 c5 294 9 326 48 360 25 22 113 46 181 49 12 1 16 14
18 56 l2 55 -450 0 c-422 0 -451 -1 -452 -17z"/>
<path d="M2340 3287 l0 -55 53 -7 c28 -4 60 -9 70 -11 39 -7 83 -41 102 -79
19 -39 20 -62 20 -722 1 -503 -2 -695 -11 -730 -20 -80 -72 -108 -221 -122 -9
-1 -13 -19 -13 -56 l0 -55 448 2 447 3 -1 48 c-2 56 -2 56 -40 62 -16 3 -45 8
-64 11 -62 10 -107 42 -125 90 -14 36 -17 85 -17 286 0 134 1 258 1 276 l1 34
68 -4 c97 -6 122 -24 179 -128 32 -57 61 -110 121 -220 90 -164 165 -274 225
-331 96 -91 277 -140 521 -143 54 -1 70 2 71 14 2 8 6 31 9 50 7 34 6 35 -38
53 -74 31 -165 127 -288 307 -144 209 -313 495 -303 511 3 5 26 17 50 28 96
43 207 138 245 211 95 184 65 424 -69 559 -56 57 -91 81 -158 109 -124 53
-149 55 -735 59 l-548 4 0 -54z m939 -103 c68 -31 94 -54 136 -119 28 -45 46
-93 61 -165 10 -53 5 -179 -11 -240 -21 -80 -36 -110 -82 -161 -71 -79 -146
-107 -304 -113 l-89 -4 -1 67 c-1 85 -1 613 0 667 1 22 7 48 14 57 36 50 180
55 276 11z"/>
</g>
</svg>
