<?xml version="1.0" standalone="no"?>
<!DOCTYPE svg PUBLIC "-//W3C//DTD SVG 20010904//EN"
 "http://www.w3.org/TR/2001/REC-SVG-20010904/DTD/svg10.dtd">
<svg version="1.0" xmlns="http://www.w3.org/2000/svg"
 width="512.000000pt" height="512.000000pt" viewBox="0 0 512.000000 512.000000"
 preserveAspectRatio="xMidYMid meet">
<metadata>
Created by potrace 1.14, written by Peter Selinger 2001-2017
</metadata>
<g transform="translate(0.000000,512.000000) scale(0.100000,-0.100000)"
fill="#000000" stroke="none">
<path d="M1469 5112 c-11 -2 -77 -87 -108 -140 -6 -10 -16 -8 -47 9 -21 13
-41 26 -44 29 -8 8 -67 30 -155 57 -67 21 -100 25 -200 24 -66 0 -129 -2 -140
-3 -25 -5 -105 -27 -125 -35 -8 -3 -24 -8 -35 -10 -10 -2 -23 -9 -27 -16 -4
-6 -8 -9 -8 -4 0 4 -18 -4 -40 -18 -22 -14 -43 -25 -48 -25 -5 0 -17 -9 -27
-20 -10 -11 -22 -20 -27 -20 -13 0 -120 -108 -162 -164 -57 -76 -115 -200
-130 -278 -2 -13 -7 -35 -11 -51 -10 -39 -12 -217 -3 -223 5 -3 6 -9 3 -14 -5
-9 10 -91 22 -120 3 -8 7 -22 9 -30 6 -28 84 -175 111 -210 44 -54 147 -156
166 -163 15 -6 16 -10 5 -27 -7 -11 -16 -20 -20 -20 -5 0 -8 -5 -8 -11 0 -6
-8 -21 -17 -34 -21 -26 -17 -21 -134 -191 -49 -71 -92 -133 -97 -139 -11 -13
-88 -124 -134 -192 -36 -54 -38 -72 -14 -100 30 -34 36 -43 36 -53 0 -5 4 -10
9 -10 5 0 12 -8 15 -18 4 -10 14 -27 24 -38 9 -10 34 -44 54 -74 20 -30 62
-91 93 -135 31 -44 82 -118 113 -165 31 -47 63 -89 69 -93 7 -4 13 -14 13 -21
0 -7 9 -21 20 -31 11 -10 20 -24 20 -31 0 -7 4 -14 8 -16 5 -1 38 -46 73 -98
61 -90 119 -173 136 -195 5 -6 28 -39 53 -75 24 -36 48 -66 52 -68 4 -2 8 -8
8 -12 0 -5 21 -39 48 -76 26 -36 54 -77 62 -89 40 -62 125 -180 132 -183 4 -2
8 -9 8 -16 0 -7 8 -21 18 -32 9 -10 37 -48 61 -84 117 -172 226 -326 236 -332
5 -4 6 -8 2 -8 -5 0 -2 -7 6 -15 8 -8 25 -30 36 -49 22 -35 51 -54 51 -33 0 7
3 8 8 2 4 -7 487 -10 1415 -10 1573 1 1462 -5 1412 69 -14 20 -25 41 -25 46 0
4 -4 10 -8 12 -4 2 -23 27 -42 55 -18 29 -37 53 -42 53 -5 0 -6 5 -3 10 3 6
-1 13 -9 16 -9 3 -16 10 -16 15 0 5 -19 37 -42 70 -24 33 -48 69 -54 80 -6 10
-18 27 -27 37 -10 10 -17 23 -17 29 0 6 -4 13 -8 15 -4 2 -37 46 -72 98 -36
52 -69 99 -73 105 -5 5 -16 22 -25 36 -51 79 -147 214 -154 217 -4 2 -8 8 -8
14 0 5 -28 49 -61 96 -67 95 -71 101 -149 217 -30 44 -57 82 -60 85 -3 3 -43
61 -89 130 -47 69 -87 127 -90 130 -3 3 -10 13 -16 22 -5 10 -41 63 -80 118
-38 56 -77 112 -85 125 -49 76 -116 170 -122 173 -18 8 -5 41 40 107 26 38 49
72 52 75 3 3 10 12 15 22 31 50 139 203 146 206 5 2 9 8 9 13 0 11 42 72 53
77 4 2 7 8 7 13 0 9 38 68 51 79 3 3 18 23 32 45 14 22 67 99 117 170 50 72
93 137 97 145 4 8 15 24 25 34 10 11 18 26 18 33 0 7 4 13 8 13 4 0 28 30 52
68 24 37 46 69 49 72 14 12 71 101 71 110 0 6 3 10 8 10 4 0 20 21 37 48 16
26 32 49 35 52 3 3 39 55 80 115 87 131 113 168 120 175 3 3 43 61 89 130 47
69 88 127 93 128 4 2 8 9 8 16 0 12 12 30 57 84 13 15 23 39 23 55 0 23 -4 27
-27 28 -71 3 -2821 4 -2834 1z"/>
</g>
</svg>
